<svg width="128" height="113" viewBox="0 0 128 113" fill="none" xmlns="http://www.w3.org/2000/svg">
<path d="M5.8186 81.6443C2.60464 81.6443 0 79.236 0 76.2634V31.4251C0 28.4529 2.60421 26.0443 5.8186 26.0443C9.033 26.0443 11.6372 28.4526 11.6372 31.4251V76.2634C11.6368 79.2356 9.03257 81.6443 5.8186 81.6443Z" fill="#704FE6"/>
<path d="M124.752 26.5727L66.2317 0.476479C64.8132 -0.158826 63.1913 -0.158826 61.7681 0.476479L3.24808 26.5727C1.34 27.4235 0.078445 29.2945 0.00603568 31.3832C-0.0663736 33.4718 1.05382 35.4247 2.89896 36.4091L61.419 67.6163C62.2254 68.0499 63.1137 68.261 63.9977 68.261C64.886 68.261 65.77 68.0477 66.5812 67.6163L125.101 36.4091C126.946 35.4247 128.069 33.474 127.994 31.3832C127.919 29.2924 126.66 27.4239 124.752 26.5727ZM63.9977 56.5751L17.9446 32.0163L63.9977 11.4805L110.053 32.0163L63.9977 56.5751Z" fill="#704FE6"/>
<path d="M119.939 49.9243L63.9977 79.762L8.05855 49.9243C5.37898 48.4942 2.0641 49.507 0.646082 52.1793C-0.777105 54.852 0.228866 58.169 2.89896 59.5918L61.419 90.8058C62.2254 91.2372 63.1137 91.4505 63.9977 91.4505C64.886 91.4505 65.77 91.2372 66.5812 90.8058L125.101 59.5918C127.771 58.169 128.777 54.8515 127.354 52.1793C125.931 49.507 122.614 48.4968 119.939 49.9243Z" fill="#704FE6"/>
<path d="M119.939 71.3277L63.9977 101.161L8.05855 71.3277C5.37898 69.8976 2.0641 70.9152 0.646082 73.5827C-0.777105 76.2554 0.228866 79.5724 2.89896 80.9952L61.419 112.207C62.2254 112.638 63.1137 112.852 63.9977 112.852C64.886 112.852 65.77 112.638 66.5812 112.207L125.101 80.9952C127.771 79.5724 128.777 76.2549 127.354 73.5827C125.929 70.9148 122.619 69.8976 119.939 71.3277Z" fill="#704FE6"/>
</svg>
