<svg width="415" height="113" viewBox="0 0 415 113" fill="none" xmlns="http://www.w3.org/2000/svg">
<path d="M124.752 26.5727L66.2315 0.476478C64.8131 -0.158826 63.1912 -0.158826 61.768 0.476478L3.24807 26.5727C1.34 27.4235 0.0784448 29.2945 0.00603567 31.3831C-0.0663735 33.4718 1.05381 35.4247 2.89895 36.4091L61.4189 67.6161C62.2253 68.0497 63.1136 68.2609 63.9976 68.2609C64.8859 68.2609 65.7699 68.0476 66.5811 67.6161L125.101 36.4091C126.946 35.4247 128.069 33.4739 127.994 31.3831C127.919 29.2923 126.66 27.4239 124.752 26.5727ZM63.9976 56.575L17.9445 32.0163L63.9976 11.4805L110.053 32.0163L63.9976 56.575Z" fill="#704FE6"/>
<path d="M119.939 49.9242L63.9976 79.7619L8.05854 49.9242C5.37897 48.4941 2.06409 49.507 0.646081 52.1792C-0.777104 54.8519 0.228866 58.1689 2.89895 59.5917L61.4189 90.8056C62.2253 91.237 63.1136 91.4504 63.9976 91.4504C64.8859 91.4504 65.7699 91.237 66.5811 90.8056L125.101 59.5917C127.771 58.1689 128.777 54.8514 127.354 52.1792C125.931 49.507 122.614 48.4967 119.939 49.9242Z" fill="#704FE6"/>
<path d="M119.939 71.3275L63.9976 101.161L8.05854 71.3275C5.37897 69.8975 2.06409 70.9151 0.646081 73.5826C-0.777104 76.2552 0.228866 79.5723 2.89895 80.995L61.4189 112.207C62.2253 112.638 63.1136 112.852 63.9976 112.852C64.8859 112.852 65.7699 112.638 66.5811 112.207L125.101 80.995C127.771 79.5723 128.777 76.2548 127.354 73.5826C125.929 70.9146 122.618 69.8975 119.939 71.3275Z" fill="#704FE6"/>
<path d="M5.81859 81.6441C2.60463 81.6441 0 79.2359 0 76.2633V31.4251C0 28.4529 2.6042 26.0442 5.81859 26.0442C9.03298 26.0442 11.6372 28.4525 11.6372 31.4251V76.2633C11.6368 79.2355 9.03255 81.6441 5.81859 81.6441Z" fill="#704FE6" fill-opacity="0.99"/>
<path d="M166.912 73.7057C160.512 73.7057 155.52 71.871 151.936 68.2017C148.352 64.5324 146.56 59.583 146.56 53.3537C146.56 47.8924 148.352 43.4124 151.936 39.9137C155.605 36.415 160.299 34.6657 166.016 34.6657C171.563 34.6657 176 36.287 179.328 39.5297C182.656 42.687 184.32 46.6124 184.32 51.3057C184.32 53.183 183.808 54.591 182.784 55.5297C181.845 56.4684 180.608 56.9377 179.072 56.9377H156.8C155.947 56.9377 155.648 57.407 155.904 58.3457C156.587 60.735 157.952 62.6124 160 63.9777C162.133 65.2577 164.523 65.8977 167.168 65.8977C169.131 65.8977 171.008 65.6417 172.8 65.1297C174.677 64.6177 176.299 63.8497 177.664 62.8257C178.091 62.4844 178.645 62.3137 179.328 62.3137C180.267 62.3137 181.12 62.7404 181.888 63.5937C182.656 64.3617 183.04 65.3004 183.04 66.4097C183.04 66.9217 182.955 67.4337 182.784 67.9457C182.613 68.4577 182.229 68.9697 181.632 69.4817C179.413 71.103 177.024 72.2124 174.464 72.8097C171.989 73.407 169.472 73.7057 166.912 73.7057ZM174.336 50.2817C174.848 50.2817 175.104 50.0257 175.104 49.5137C175.104 47.551 174.208 45.8444 172.416 44.3937C170.709 42.943 168.576 42.2177 166.016 42.2177C163.797 42.2177 161.664 42.815 159.616 44.0097C157.653 45.2044 156.459 46.783 156.032 48.7457C156.032 48.7457 156.032 48.7884 156.032 48.8737C155.947 49.215 155.904 49.5137 155.904 49.7697C155.989 50.0257 156.373 50.1537 157.056 50.1537L174.336 50.2817Z" fill="black"/>
<path d="M209.757 73.7057C206.088 73.7057 202.802 72.8524 199.901 71.1457C197 69.439 194.738 67.0924 193.117 64.1057C191.496 61.0337 190.685 57.6204 190.685 53.8657C190.685 50.1964 191.496 46.911 193.117 44.0097C194.738 41.1084 197 38.847 199.901 37.2257C202.802 35.519 206.088 34.6657 209.757 34.6657C212.146 34.6657 214.28 35.0497 216.157 35.8177C218.034 36.5857 219.656 37.6524 221.021 39.0177V21.0977C221.021 19.647 221.448 18.5804 222.301 17.8977C223.24 17.1297 224.264 16.7457 225.373 16.7457C226.482 16.7457 227.464 17.1297 228.317 17.8977C229.256 18.5804 229.725 19.647 229.725 21.0977V69.7377C229.725 71.0177 229.256 71.999 228.317 72.6817C227.464 73.3644 226.482 73.7057 225.373 73.7057C224.264 73.7057 223.24 73.3644 222.301 72.6817C221.448 71.999 221.021 71.0177 221.021 69.7377V69.2257C219.656 70.591 218.034 71.6577 216.157 72.4257C214.28 73.279 212.146 73.7057 209.757 73.7057ZM210.525 65.7697C213.768 65.7697 216.328 64.703 218.205 62.5697C220.082 60.351 221.021 57.4497 221.021 53.8657C221.021 50.4524 220.082 47.7217 218.205 45.6737C216.328 43.6257 213.768 42.6017 210.525 42.6017C207.197 42.6017 204.509 43.6257 202.461 45.6737C200.413 47.7217 199.389 50.4524 199.389 53.8657C199.389 57.4497 200.413 60.351 202.461 62.5697C204.509 64.703 207.197 65.7697 210.525 65.7697Z" fill="black"/>
<path d="M265.866 38.8897C265.866 37.695 266.25 36.7137 267.018 35.9457C267.871 35.0924 268.938 34.6657 270.218 34.6657C271.413 34.6657 272.437 35.0924 273.29 35.9457C274.143 36.7137 274.57 37.695 274.57 38.8897V56.9377C274.57 60.7777 273.717 63.935 272.01 66.4097C270.303 68.8844 268.085 70.719 265.354 71.9137C262.623 73.1084 259.722 73.7057 256.65 73.7057C253.578 73.7057 250.677 73.1084 247.946 71.9137C245.215 70.719 242.997 68.8844 241.29 66.4097C239.583 63.935 238.73 60.7777 238.73 56.9377V38.8897C238.73 37.695 239.114 36.7137 239.882 35.9457C240.735 35.0924 241.802 34.6657 243.082 34.6657C244.277 34.6657 245.301 35.0924 246.154 35.9457C247.007 36.7137 247.434 37.695 247.434 38.8897V56.9377C247.434 60.095 248.373 62.3564 250.25 63.7217C252.127 65.087 254.261 65.7697 256.65 65.7697C259.125 65.7697 261.258 65.087 263.05 63.7217C264.927 62.3564 265.866 60.095 265.866 56.9377V38.8897Z" fill="black"/>
<path d="M316.248 73.7057C315.139 73.7057 314.115 73.3644 313.176 72.6817C312.323 71.999 311.896 71.0177 311.896 69.7377V53.6097C311.896 49.855 311.043 47.0817 309.336 45.2897C307.715 43.4977 305.539 42.6017 302.808 42.6017C299.309 42.6017 296.749 43.7537 295.128 46.0577C293.592 48.2764 292.824 50.751 292.824 53.4817V69.7377C292.824 71.0177 292.355 71.999 291.416 72.6817C290.563 73.3644 289.581 73.7057 288.472 73.7057C287.363 73.7057 286.339 73.3644 285.4 72.6817C284.547 71.999 284.12 71.0177 284.12 69.7377V39.6577C284.12 38.207 284.547 37.1404 285.4 36.4577C286.339 35.6897 287.363 35.3057 288.472 35.3057C289.581 35.3057 290.563 35.6897 291.416 36.4577C292.355 37.1404 292.824 38.207 292.824 39.6577C294.275 38.207 296.152 37.0124 298.456 36.0737C300.76 35.135 302.936 34.6657 304.984 34.6657C309.763 34.6657 313.56 36.2017 316.376 39.2737C319.192 42.3457 320.6 46.8684 320.6 52.8417V69.7377C320.6 71.0177 320.131 71.999 319.192 72.6817C318.253 73.3644 317.272 73.7057 316.248 73.7057Z" fill="black"/>
<path d="M334.725 73.7057C333.616 73.7057 332.592 73.3644 331.653 72.6817C330.8 71.999 330.373 71.0177 330.373 69.7377V39.0177C330.373 37.567 330.8 36.5004 331.653 35.8177C332.592 35.0497 333.616 34.6657 334.725 34.6657C335.834 34.6657 336.816 35.0497 337.669 35.8177C338.608 36.5004 339.077 37.567 339.077 39.0177V69.7377C339.077 71.0177 338.608 71.999 337.669 72.6817C336.816 73.3644 335.834 73.7057 334.725 73.7057ZM334.853 27.6257C333.232 27.6257 331.824 27.1137 330.629 26.0897C329.52 24.9804 328.965 23.6577 328.965 22.1217C328.965 20.671 329.52 19.4337 330.629 18.4097C331.824 17.3004 333.232 16.7457 334.853 16.7457C336.389 16.7457 337.712 17.3004 338.821 18.4097C339.93 19.4337 340.485 20.671 340.485 22.1217C340.485 23.6577 339.93 24.9804 338.821 26.0897C337.712 27.1137 336.389 27.6257 334.853 27.6257Z" fill="black"/>
<path d="M363.959 73.7057C360.631 73.7057 357.9 72.6817 355.767 70.6337C353.634 68.5857 352.567 65.5137 352.567 61.4177V45.1617C352.567 44.3084 352.14 43.8817 351.287 43.8817H348.983C347.874 43.8817 346.935 43.5404 346.167 42.8577C345.399 42.0897 345.015 41.151 345.015 40.0417C345.015 38.847 345.399 37.8657 346.167 37.0977C346.935 36.3297 347.874 35.9457 348.983 35.9457H351.287C352.14 35.9457 352.567 35.519 352.567 34.6657V23.9137C352.567 22.719 352.951 21.7804 353.719 21.0977C354.572 20.3297 355.596 19.9457 356.791 19.9457C358.071 19.9457 359.095 20.3297 359.863 21.0977C360.716 21.7804 361.143 22.719 361.143 23.9137V34.6657C361.143 35.519 361.57 35.9457 362.423 35.9457H369.335C370.359 35.9457 371.255 36.3297 372.023 37.0977C372.791 37.8657 373.175 38.847 373.175 40.0417C373.175 41.151 372.791 42.0897 372.023 42.8577C371.34 43.5404 370.402 43.8817 369.207 43.8817H362.423C361.57 43.8817 361.143 44.3084 361.143 45.1617V60.2657C361.143 63.8497 362.594 65.6417 365.495 65.6417C366.348 65.6417 367.244 65.5137 368.183 65.2577C369.122 65.0017 369.762 64.8737 370.103 64.8737C371.298 64.8737 372.194 65.2577 372.791 66.0257C373.474 66.7937 373.815 67.6897 373.815 68.7137C373.815 69.4817 373.602 70.2497 373.175 71.0177C372.748 71.7004 372.066 72.2124 371.127 72.5537C370.188 72.895 368.994 73.151 367.543 73.3217C366.178 73.5777 364.983 73.7057 363.959 73.7057Z" fill="black"/>
<path d="M376.405 39.0177C376.405 37.6524 376.874 36.5857 377.813 35.8177C378.752 35.0497 379.776 34.6657 380.885 34.6657C382.677 34.6657 383.957 35.5617 384.725 37.3537L394.709 61.8017C394.965 62.4844 395.434 62.8257 396.117 62.8257C396.8 62.8257 397.269 62.527 397.525 61.9297L406.101 37.4817C406.784 35.6044 408.106 34.6657 410.069 34.6657C411.264 34.6657 412.33 35.0497 413.269 35.8177C414.293 36.5857 414.805 37.5244 414.805 38.6337C414.805 39.0604 414.677 39.6577 414.421 40.4257L394.837 88.1697C394.154 90.047 392.832 90.9857 390.869 90.9857C389.76 90.9857 388.693 90.6017 387.669 89.8337C386.73 89.0657 386.261 88.127 386.261 87.0177C386.261 86.1644 386.389 85.567 386.645 85.2257L392.917 72.4257C391.125 72.255 389.888 71.4017 389.205 69.8657L376.661 40.5537C376.49 39.871 376.405 39.359 376.405 39.0177Z" fill="black"/>
</svg>
